<mxfile host="app.diagrams.net" agent="Mozilla/5.0 (Macintosh; Intel Mac OS X 10_15_7) AppleWebKit/537.36 (KHTML, like Gecko) Chrome/131.0.0.0 Safari/537.36" version="26.0.2">
  <diagram name="Page-1" id="5xk9BS77hsO8OsJ2eruu">
    <mxGraphModel dx="1026" dy="657" grid="1" gridSize="10" guides="1" tooltips="1" connect="1" arrows="1" fold="1" page="1" pageScale="1" pageWidth="1400" pageHeight="1700" math="0" shadow="0">
      <root>
        <mxCell id="0" />
        <mxCell id="1" parent="0" />
        <mxCell id="9dVGbVodXwv7mfHXh9Bq-2" value="User" style="shape=rect;html=1;whiteSpace=wrap;align=center;" vertex="1" parent="1">
          <mxGeometry x="110" y="40" width="160" height="60" as="geometry" />
        </mxCell>
        <mxCell id="9dVGbVodXwv7mfHXh9Bq-21" style="edgeStyle=orthogonalEdgeStyle;rounded=0;orthogonalLoop=1;jettySize=auto;html=1;exitX=1;exitY=0.059;exitDx=0;exitDy=0;entryX=0;entryY=0.059;entryDx=0;entryDy=0;exitPerimeter=0;entryPerimeter=0;" edge="1" parent="1" source="9dVGbVodXwv7mfHXh9Bq-3" target="9dVGbVodXwv7mfHXh9Bq-7">
          <mxGeometry relative="1" as="geometry">
            <Array as="points" />
          </mxGeometry>
        </mxCell>
        <mxCell id="9dVGbVodXwv7mfHXh9Bq-22" value="Select Match" style="edgeLabel;html=1;align=center;verticalAlign=middle;resizable=0;points=[];" vertex="1" connectable="0" parent="9dVGbVodXwv7mfHXh9Bq-21">
          <mxGeometry x="-0.2563" y="-1" relative="1" as="geometry">
            <mxPoint x="26" y="-3" as="offset" />
          </mxGeometry>
        </mxCell>
        <mxCell id="9dVGbVodXwv7mfHXh9Bq-23" style="edgeStyle=orthogonalEdgeStyle;rounded=0;orthogonalLoop=1;jettySize=auto;html=1;entryX=0;entryY=0.5;entryDx=0;entryDy=0;" edge="1" parent="1" target="9dVGbVodXwv7mfHXh9Bq-13">
          <mxGeometry relative="1" as="geometry">
            <mxPoint x="201" y="220" as="sourcePoint" />
          </mxGeometry>
        </mxCell>
        <mxCell id="9dVGbVodXwv7mfHXh9Bq-24" value="Create Virtual Team" style="edgeLabel;html=1;align=center;verticalAlign=middle;resizable=0;points=[];" vertex="1" connectable="0" parent="9dVGbVodXwv7mfHXh9Bq-23">
          <mxGeometry x="-0.388" y="4" relative="1" as="geometry">
            <mxPoint y="4" as="offset" />
          </mxGeometry>
        </mxCell>
        <mxCell id="9dVGbVodXwv7mfHXh9Bq-3" value="" style="shape=rect;html=1;fillColor=#eeeeee;" vertex="1" parent="1">
          <mxGeometry x="180" y="140" width="20" height="500" as="geometry" />
        </mxCell>
        <mxCell id="9dVGbVodXwv7mfHXh9Bq-4" value="" style="edgeStyle=none;html=1;dashed=1;endArrow=none;rounded=0;" edge="1" source="9dVGbVodXwv7mfHXh9Bq-2" target="9dVGbVodXwv7mfHXh9Bq-3" parent="1">
          <mxGeometry relative="1" as="geometry" />
        </mxCell>
        <mxCell id="9dVGbVodXwv7mfHXh9Bq-5" value="" style="edgeStyle=none;html=1;dashed=1;endArrow=none;rounded=0;" edge="1" parent="1">
          <mxGeometry x="1" relative="1" as="geometry">
            <mxPoint x="190" y="700" as="targetPoint" />
            <mxPoint x="189.5" y="640" as="sourcePoint" />
          </mxGeometry>
        </mxCell>
        <mxCell id="9dVGbVodXwv7mfHXh9Bq-6" value="Match" style="shape=rect;html=1;whiteSpace=wrap;align=center;" vertex="1" parent="1">
          <mxGeometry x="410" y="40" width="160" height="60" as="geometry" />
        </mxCell>
        <mxCell id="9dVGbVodXwv7mfHXh9Bq-7" value="" style="shape=rect;html=1;fillColor=#eeeeee;" vertex="1" parent="1">
          <mxGeometry x="480" y="140" width="20" height="500" as="geometry" />
        </mxCell>
        <mxCell id="9dVGbVodXwv7mfHXh9Bq-8" value="" style="edgeStyle=none;html=1;dashed=1;endArrow=none;rounded=0;" edge="1" parent="1" source="9dVGbVodXwv7mfHXh9Bq-6" target="9dVGbVodXwv7mfHXh9Bq-7">
          <mxGeometry relative="1" as="geometry" />
        </mxCell>
        <mxCell id="9dVGbVodXwv7mfHXh9Bq-9" value="" style="edgeStyle=none;html=1;dashed=1;endArrow=none;rounded=0;" edge="1" parent="1">
          <mxGeometry x="1" relative="1" as="geometry">
            <mxPoint x="490" y="700" as="targetPoint" />
            <mxPoint x="489.5" y="640" as="sourcePoint" />
          </mxGeometry>
        </mxCell>
        <mxCell id="9dVGbVodXwv7mfHXh9Bq-13" value="VirtualTeam" style="shape=rect;html=1;whiteSpace=wrap;align=center;" vertex="1" parent="1">
          <mxGeometry x="700" y="190" width="160" height="60" as="geometry" />
        </mxCell>
        <mxCell id="9dVGbVodXwv7mfHXh9Bq-14" value="" style="shape=rect;html=1;fillColor=#eeeeee;" vertex="1" parent="1">
          <mxGeometry x="770" y="280" width="20" height="360" as="geometry" />
        </mxCell>
        <mxCell id="9dVGbVodXwv7mfHXh9Bq-15" value="" style="edgeStyle=none;html=1;dashed=1;endArrow=none;rounded=0;" edge="1" parent="1" source="9dVGbVodXwv7mfHXh9Bq-13" target="9dVGbVodXwv7mfHXh9Bq-14">
          <mxGeometry relative="1" as="geometry" />
        </mxCell>
        <mxCell id="9dVGbVodXwv7mfHXh9Bq-16" value="" style="edgeStyle=none;html=1;dashed=1;endArrow=none;rounded=0;" edge="1" parent="1">
          <mxGeometry x="1" relative="1" as="geometry">
            <mxPoint x="780" y="700" as="targetPoint" />
            <mxPoint x="779.5" y="640" as="sourcePoint" />
          </mxGeometry>
        </mxCell>
        <mxCell id="9dVGbVodXwv7mfHXh9Bq-17" value="Contest" style="shape=rect;html=1;whiteSpace=wrap;align=center;" vertex="1" parent="1">
          <mxGeometry x="950" y="40" width="160" height="60" as="geometry" />
        </mxCell>
        <mxCell id="9dVGbVodXwv7mfHXh9Bq-30" style="edgeStyle=orthogonalEdgeStyle;rounded=0;orthogonalLoop=1;jettySize=auto;html=1;exitX=0;exitY=0.25;exitDx=0;exitDy=0;entryX=1;entryY=0.5;entryDx=0;entryDy=0;dashed=1;dashPattern=8 8;endArrow=openThin;endFill=0;endSize=10;" edge="1" parent="1" source="9dVGbVodXwv7mfHXh9Bq-18" target="9dVGbVodXwv7mfHXh9Bq-3">
          <mxGeometry relative="1" as="geometry">
            <Array as="points">
              <mxPoint x="1020" y="390" />
            </Array>
          </mxGeometry>
        </mxCell>
        <mxCell id="9dVGbVodXwv7mfHXh9Bq-31" value="Deducts Funds From Account" style="edgeLabel;html=1;align=center;verticalAlign=middle;resizable=0;points=[];" vertex="1" connectable="0" parent="9dVGbVodXwv7mfHXh9Bq-30">
          <mxGeometry x="0.1786" relative="1" as="geometry">
            <mxPoint as="offset" />
          </mxGeometry>
        </mxCell>
        <mxCell id="9dVGbVodXwv7mfHXh9Bq-18" value="" style="shape=rect;html=1;fillColor=#eeeeee;" vertex="1" parent="1">
          <mxGeometry x="1020" y="280" width="20" height="360" as="geometry" />
        </mxCell>
        <mxCell id="9dVGbVodXwv7mfHXh9Bq-19" value="" style="edgeStyle=none;html=1;dashed=1;endArrow=none;rounded=0;" edge="1" parent="1" source="9dVGbVodXwv7mfHXh9Bq-17" target="9dVGbVodXwv7mfHXh9Bq-18">
          <mxGeometry relative="1" as="geometry" />
        </mxCell>
        <mxCell id="9dVGbVodXwv7mfHXh9Bq-20" value="" style="edgeStyle=none;html=1;dashed=1;endArrow=none;rounded=0;" edge="1" parent="1">
          <mxGeometry x="1" relative="1" as="geometry">
            <mxPoint x="1030" y="700" as="targetPoint" />
            <mxPoint x="1029.5" y="640" as="sourcePoint" />
          </mxGeometry>
        </mxCell>
        <mxCell id="9dVGbVodXwv7mfHXh9Bq-27" value="alt" style="shape=umlFrame;whiteSpace=wrap;html=1;pointerEvents=0;recursiveResize=0;container=1;collapsible=0;width=60;height=30;" vertex="1" parent="1">
          <mxGeometry x="120" y="330" width="960" height="270" as="geometry" />
        </mxCell>
        <mxCell id="9dVGbVodXwv7mfHXh9Bq-28" value="[Sufficient Funds Available]" style="text;html=1;" vertex="1" parent="9dVGbVodXwv7mfHXh9Bq-27">
          <mxGeometry width="100" height="20" relative="1" as="geometry">
            <mxPoint x="60" y="20" as="offset" />
          </mxGeometry>
        </mxCell>
        <mxCell id="9dVGbVodXwv7mfHXh9Bq-29" value="[Sufficient Funds Unavailable]" style="line;strokeWidth=1;dashed=1;labelPosition=center;verticalLabelPosition=bottom;align=left;verticalAlign=top;spacingLeft=20;spacingTop=15;html=1;whiteSpace=wrap;" vertex="1" parent="9dVGbVodXwv7mfHXh9Bq-27">
          <mxGeometry y="125" width="960" height="10" as="geometry" />
        </mxCell>
        <mxCell id="9dVGbVodXwv7mfHXh9Bq-25" style="edgeStyle=orthogonalEdgeStyle;rounded=0;orthogonalLoop=1;jettySize=auto;html=1;" edge="1" parent="9dVGbVodXwv7mfHXh9Bq-27">
          <mxGeometry relative="1" as="geometry">
            <mxPoint x="80" y="-30" as="sourcePoint" />
            <mxPoint x="897" y="-30" as="targetPoint" />
            <Array as="points">
              <mxPoint x="897" y="-30" />
            </Array>
          </mxGeometry>
        </mxCell>
        <mxCell id="9dVGbVodXwv7mfHXh9Bq-26" value="Request for Participation" style="edgeLabel;html=1;align=center;verticalAlign=middle;resizable=0;points=[];" vertex="1" connectable="0" parent="9dVGbVodXwv7mfHXh9Bq-25">
          <mxGeometry x="-0.1146" y="-3" relative="1" as="geometry">
            <mxPoint y="-3" as="offset" />
          </mxGeometry>
        </mxCell>
        <mxCell id="9dVGbVodXwv7mfHXh9Bq-33" style="edgeStyle=orthogonalEdgeStyle;rounded=0;orthogonalLoop=1;jettySize=auto;html=1;entryX=1;entryY=0.58;entryDx=0;entryDy=0;entryPerimeter=0;" edge="1" parent="1" source="9dVGbVodXwv7mfHXh9Bq-18" target="9dVGbVodXwv7mfHXh9Bq-3">
          <mxGeometry relative="1" as="geometry">
            <Array as="points">
              <mxPoint x="820" y="430" />
              <mxPoint x="820" y="430" />
            </Array>
          </mxGeometry>
        </mxCell>
        <mxCell id="9dVGbVodXwv7mfHXh9Bq-34" value="Registration Successful" style="edgeLabel;html=1;align=center;verticalAlign=middle;resizable=0;points=[];" vertex="1" connectable="0" parent="9dVGbVodXwv7mfHXh9Bq-33">
          <mxGeometry x="0.1512" y="3" relative="1" as="geometry">
            <mxPoint y="-3" as="offset" />
          </mxGeometry>
        </mxCell>
        <mxCell id="9dVGbVodXwv7mfHXh9Bq-35" style="edgeStyle=orthogonalEdgeStyle;rounded=0;orthogonalLoop=1;jettySize=auto;html=1;exitX=0;exitY=0.75;exitDx=0;exitDy=0;entryX=1.05;entryY=0.819;entryDx=0;entryDy=0;entryPerimeter=0;" edge="1" parent="1" source="9dVGbVodXwv7mfHXh9Bq-18" target="9dVGbVodXwv7mfHXh9Bq-3">
          <mxGeometry relative="1" as="geometry" />
        </mxCell>
        <mxCell id="9dVGbVodXwv7mfHXh9Bq-36" value="Registration Fails" style="edgeLabel;html=1;align=center;verticalAlign=middle;resizable=0;points=[];" vertex="1" connectable="0" parent="9dVGbVodXwv7mfHXh9Bq-35">
          <mxGeometry x="0.2068" y="3" relative="1" as="geometry">
            <mxPoint x="24" y="-2" as="offset" />
          </mxGeometry>
        </mxCell>
      </root>
    </mxGraphModel>
  </diagram>
</mxfile>
